<svg width="11" height="21" viewBox="0 0 11 21" fill="none" xmlns="http://www.w3.org/2000/svg">
<path fill-rule="evenodd" clip-rule="evenodd" d="M1.14856 10.9218H2.61962V19.8201C2.61962 20.0156 2.78421 20.1802 2.97966 20.1802H6.82703C7.02249 20.1802 7.18708 20.0156 7.18708 19.8201V10.9218H9.41938C9.60454 10.9218 9.75885 10.7778 9.77942 10.6029L10.1189 7.33159C10.1395 7.13614 9.99545 6.96126 9.8 6.94069C9.78971 6.94069 9.77943 6.94069 9.75885 6.94069H7.18708V5.37705C7.18708 5.27418 7.19737 5.17131 7.23852 5.07872C7.27966 4.98614 7.35167 4.91413 7.45454 4.88327C7.51627 4.86269 7.57799 4.85241 7.63971 4.85241H9.70742C9.90287 4.85241 10.0675 4.68781 10.0675 4.49236V1.32394C10.0675 1.12848 9.90287 0.963891 9.70742 0.963891L6.85789 0.953604C6.1378 0.93303 5.4177 1.08734 4.75933 1.38566C4.35813 1.57083 3.99809 1.83829 3.69976 2.15719C3.29856 2.58925 3.01053 3.11389 2.83564 3.67968C2.68134 4.17346 2.60933 4.67753 2.60933 5.19188V6.95097H1.13828C0.942822 6.95097 0.778229 7.11557 0.778229 7.31102V10.5823C0.788516 10.7572 0.942822 10.9218 1.14856 10.9218Z" fill="#716565"/>
</svg>
