<svg width="39" height="39" viewBox="0 0 39 39" fill="none" xmlns="http://www.w3.org/2000/svg">
<path fill-rule="evenodd" clip-rule="evenodd" d="M37.6625 0.0116577H1.22539C0.555029 0.0116577 0.0108337 0.554604 0.0108337 1.22621V8.51338C0.0108337 9.18374 0.554891 9.72793 1.22539 9.72793H37.6625C38.3341 9.72793 38.877 9.18388 38.877 8.51338V1.22621C38.877 0.554466 38.3328 0.0116577 37.6625 0.0116577ZM37.6625 29.1603H1.22539C0.555029 29.1603 0.0108337 29.7033 0.0108337 30.3736V37.6621C0.0108337 38.3324 0.554891 38.8766 1.22539 38.8766H37.6625C38.3341 38.8766 38.877 38.3326 38.877 37.6621V30.3736C38.877 29.7033 38.3328 29.1603 37.6625 29.1603Z" fill="#EFC75E"/>
</svg>
