<svg width="21" height="17" viewBox="0 0 21 17" fill="none" xmlns="http://www.w3.org/2000/svg">
<path fill-rule="evenodd" clip-rule="evenodd" d="M0.593529 14.9294C2.46578 16.133 4.64664 16.7708 6.86865 16.7708C8.58659 16.7811 10.2942 16.4211 11.8579 15.701C13.9256 14.734 15.6538 13.1498 16.8163 11.1746C17.9067 9.34355 18.493 7.25527 18.5136 5.11556C18.5136 5.0024 18.5136 4.88924 18.5136 4.77608C19.2543 4.21029 19.9024 3.53135 20.427 2.74953C20.5402 2.58494 20.4887 2.35862 20.3242 2.24546C20.2213 2.17345 20.0875 2.16317 19.9744 2.2146C19.6966 2.33805 19.4189 2.44092 19.1308 2.52321C19.4909 2.10144 19.7584 1.60766 19.923 1.08302C19.9847 0.897854 19.8818 0.692113 19.6864 0.63039C19.5835 0.599529 19.4806 0.609816 19.388 0.661252C18.6988 1.07273 17.9478 1.36077 17.166 1.53565C15.4481 -0.130854 12.7117 -0.0794183 11.0452 1.63852C10.2634 2.44092 9.83133 3.52106 9.83133 4.65264C9.83133 4.82752 9.84161 4.99211 9.86219 5.16699C6.94066 4.89953 4.25573 3.46962 2.40406 1.18589C2.28061 1.03159 2.05429 1.01101 1.89999 1.13446C1.86913 1.16532 1.83827 1.19618 1.81769 1.23733C0.922716 2.78039 1.05645 4.71436 2.17774 6.10312C2.02343 6.0414 1.87941 5.97967 1.7354 5.89738C1.56051 5.80479 1.34449 5.86651 1.24162 6.0414C1.21075 6.09283 1.20047 6.14427 1.20047 6.20599C1.20047 6.23685 1.20047 6.24714 1.20047 6.26771C1.20047 7.72848 1.94114 9.09666 3.17559 9.89905C3.12415 9.88876 3.07272 9.87848 3.02128 9.86819C2.82583 9.82704 2.64066 9.96077 2.59951 10.1562C2.58922 10.218 2.58922 10.2797 2.6098 10.3311C3.06243 11.761 4.23516 12.8514 5.68563 13.2115C4.22487 14.0962 2.51721 14.4665 0.830132 14.2608C0.634677 14.2402 0.44951 14.3739 0.428936 14.5797C0.418649 14.7134 0.480371 14.8471 0.593529 14.9294Z" fill="#716565"/>
</svg>
